<svg xmlns="http://www.w3.org/2000/svg" width="24" height="24" viewBox="0 0 24 24" fill="none"><rect x="1" y="1" width="10" height="10" rx="2.5" fill="#FFF0E1"/><g clip-path="url(#a)"><g clip-path="url(#b)" fill-rule="evenodd" clip-rule="evenodd"><path d="m7.71 8.914-1.048.281v-.37l-.084-.085h-.6v.737h.642l.79-.347z" fill="#CDBDB2"/><path d="m4.289 8.914 1.027.281v-.37l.087-.085H6v.737h-.643l-.79-.347z" fill="#CDBDB2"/><path d="m6.578 8.111.084.714-.106-.085h-1.11l-.13.085.088-.714.17-.108.856.02z" fill="#393939"/><path d="m7.156 3.269-.513 1.215-.236 3.538h-.832l-.259-3.538-.472-1.215z" fill="#F89C35"/><path d="m9.4 5.939.6 1.76-1.498-.09H7.54v-.76l.042-1.559.217.17z" fill="#F89D35"/><path d="m8.266 6.136-1.753.042.194.91.832-.216z" fill="#D87C30"/><path d="m8.266 6.155-.727.694v.695z" fill="#EA8D3A"/><path d="m7.54 6.872-.856.216-.278.934.194.108.94-.563z" fill="#F89D35"/><path d="m7.54 7.567.17 1.346-1.132-.802z" fill="#EB8F35"/><path d="m6.514 6.178-.107 1.844.32-.941z" fill="#EA8E3A"/><path d="m8.525 7.59-.984-.023.17 1.346z" fill="#D87C30"/><path d="M9.529 9.5 7.71 8.914l.814-1.324L10 7.698z" fill="#EB8F35"/><path d="m6.642 4.484.92.783.704.868-1.753.066z" fill="#E8821E"/><path d="M7.71 8.914 6.579 8.11l.084.694v.39l.771-.15zm-3.422 0 1.114-.803-.087.694v.39l-.768-.15z" fill="#DFCEC3"/><path d="m6.985 6.568-.236.501.833-.22z" fill="#393939"/><path d="M9.553 2.25 6.644 4.484l.49-1.215z" fill="#E88F35"/><path d="m9.552 2.25.384 1.192-.213 1.304.148.085-.213.197.171.15-.236.217.149.13-.343.433-1.604-.498q-1.177-.953-1.156-.976c.015-.015.989-.76 2.913-2.234" fill="#8E5A30"/><path d="M2.6 5.939 2 7.699l1.498-.09h.962v-.76L4.418 5.29l-.213.17z" fill="#F89D35"/><path d="m3.734 6.136 1.753.042-.19.91-.836-.216z" fill="#D87C30"/><path d="m3.734 6.155.727.694v.695z" fill="#EA8D3A"/><path d="m4.46 6.872.856.216.278.934-.19.108-.943-.563z" fill="#F89D35"/><path d="m4.46 7.567-.17 1.346 1.113-.783z" fill="#EB8F35"/><path d="m5.486 6.178.107 1.844-.32-.941z" fill="#EA8E3A"/><path d="m3.477 7.59.984-.023-.17 1.346z" fill="#D87C30"/><path d="m2.471 9.5 1.818-.586-.814-1.324L2 7.698z" fill="#EB8F35"/><path d="m5.358 4.484-.92.783-.704.868 1.753.066z" fill="#E8821E"/><path d="m5.015 6.568.236.501-.833-.22z" fill="#393939"/><path d="m2.45 2.25 2.908 2.234-.49-1.215z" fill="#E88F35"/><path d="m2.448 2.25-.384 1.192.213 1.304-.148.085.213.197-.171.15.236.217-.149.13.343.433 1.604-.498q1.177-.953 1.156-.976T2.448 2.25" fill="#8E5A30"/></g></g><rect x="13" y="1" width="10" height="10" rx="2.5" fill="#FFD5C0"/><g clip-path="url(#c)"><path d="m21.159 3.917.188-.461s-.237-.255-.528-.546-.904-.122-.904-.122L19.218 2H16.76l-.697.795s-.613-.17-.904.12c-.291.292-.527.547-.527.547l.188.46-.237.68s.704 2.657.782 2.984c.164.637.273.886.734 1.213s1.292.886 1.432.97c.133.085.309.231.46.231s.322-.146.462-.23c.133-.085.97-.65 1.431-.97.46-.322.57-.571.734-1.214l.782-2.984z" fill="url(#d)"/><path d="M19.722 3.298s.898 1.086.898 1.322c0 .237-.116.291-.23.413-.116.12-.613.648-.674.715-.067.067-.194.17-.121.358.079.182.194.419.066.661-.127.237-.345.4-.485.37-.14-.024-.473-.2-.594-.279-.122-.079-.504-.394-.504-.515 0-.122.4-.34.473-.389s.407-.242.413-.315.006-.097-.097-.285c-.097-.188-.28-.437-.249-.6.03-.164.316-.25.522-.328s.6-.224.649-.249c.048-.024.036-.042-.116-.06-.151-.012-.57-.073-.764-.019-.194.055-.515.134-.546.176-.024.043-.048.043-.024.194.024.146.17.862.182.99.012.126.043.211-.097.242-.133.03-.364.085-.443.085s-.309-.055-.443-.085c-.133-.03-.109-.116-.096-.243s.151-.837.181-.989c.025-.145.006-.151-.024-.194-.024-.042-.352-.12-.546-.176-.194-.054-.612 0-.764.019-.152.012-.164.036-.115.06.048.025.443.17.649.249s.491.164.521.328c.03.163-.145.412-.248.6-.097.188-.103.206-.097.285.006.073.34.267.412.315.073.049.473.267.473.389 0 .12-.382.436-.503.515-.122.079-.449.249-.595.28-.14.023-.357-.134-.485-.37-.127-.237-.012-.474.067-.662.079-.182-.055-.285-.121-.358-.049-.073-.54-.6-.655-.715-.116-.122-.225-.182-.225-.413s.898-1.322.898-1.322.758.145.861.145.322-.084.528-.151.34-.067.34-.067.133 0 .34.067c.205.067.424.151.527.151s.861-.145.861-.145m-.673 4.155c.054.036.024.103-.03.133-.05.036-.734.564-.795.625-.067.06-.164.151-.23.151-.067 0-.164-.097-.231-.151a40 40 0 0 0-.795-.625c-.048-.036-.084-.103-.03-.133.055-.037.23-.122.467-.25.243-.127.54-.23.588-.23.049 0 .346.104.589.23.236.128.406.22.467.25" fill="#fff"/></g><g clip-path="url(#e)"><path d="M20.5 13h-5a2.5 2.5 0 0 0-2.5 2.5v5a2.5 2.5 0 0 0 2.5 2.5h5a2.5 2.5 0 0 0 2.5-2.5v-5a2.5 2.5 0 0 0-2.5-2.5" fill="#AB9FF2"/><path fill-rule="evenodd" clip-rule="evenodd" d="M17.347 19.418c-.373.57-.997 1.293-1.827 1.293-.393 0-.77-.162-.77-.864 0-1.788 2.44-4.555 4.706-4.555 1.288 0 1.802.894 1.802 1.909 0 1.303-.846 2.793-1.686 2.793-.267 0-.398-.147-.398-.38q0-.09.03-.196c-.287.49-.84.944-1.359.944-.377 0-.569-.237-.569-.57q.002-.184.071-.374m1.95-2.253c0 .296-.174.444-.369.444-.198 0-.37-.148-.37-.444 0-.295.172-.443.37-.443.195 0 .37.148.37.443m1.11 0c0 .296-.174.444-.37.444-.198 0-.37-.148-.37-.444 0-.295.172-.443.37-.443.196 0 .37.148.37.443" fill="#FFFDF8"/></g><g clip-path="url(#f)"><path d="M8.5 13h-5A2.5 2.5 0 0 0 1 15.5v5A2.5 2.5 0 0 0 3.5 23h5a2.5 2.5 0 0 0 2.5-2.5v-5A2.5 2.5 0 0 0 8.5 13" fill="#797CFF"/><path d="M9.328 18.373c.27-.598-1.063-2.269-2.336-2.965-.803-.54-1.639-.465-1.808-.228-.372.52 1.23.96 2.302 1.473-.23.1-.447.278-.575.506-.4-.433-1.276-.806-2.305-.506-.694.203-1.27.68-1.492 1.401a.437.437 0 0 0-.614.396c0 .24.195.434.436.434.045 0 .185-.03.185-.03l2.232.016c-.893 1.406-1.598 1.612-1.598 1.856s.675.177.928.087c1.214-.435 2.517-1.79 2.74-2.18.94.116 1.73.13 1.905-.26" fill="url(#g)"/><path fill-rule="evenodd" clip-rule="evenodd" d="M7.485 16.653c.05-.019.042-.092.028-.149-.031-.132-.572-.662-1.08-.9-.692-.323-1.201-.306-1.277-.157.141.287.795.556 1.477.837.292.12.588.243.852.37" fill="url(#h)"/><path fill-rule="evenodd" clip-rule="evenodd" d="M6.608 19.541a4 4 0 0 0-.478-.146c.192-.34.232-.844.05-1.163-.253-.448-.572-.686-1.313-.686-.408 0-1.505.137-1.524 1.046q-.003.143.006.264l2.004.014a7 7 0 0 1-.744.981 160 160 0 0 1 1.236.318c.276-.2.536-.418.763-.628" fill="url(#i)"/><path d="M3.087 18.762c.081.691.477.962 1.285 1.042s1.272.027 1.889.082c.515.047.975.308 1.146.218.154-.082.068-.375-.138-.563-.266-.243-.635-.413-1.284-.473.13-.352.093-.845-.108-1.113-.29-.388-.827-.563-1.505-.487-.709.08-1.388.427-1.285 1.294" fill="url(#j)"/></g><defs><linearGradient id="d" x1="14.584" y1="6" x2="21.401" y2="6" gradientUnits="userSpaceOnUse"><stop stop-color="#F50"/><stop offset=".41" stop-color="#F50"/><stop offset=".582" stop-color="#FF2000"/><stop offset="1" stop-color="#FF2000"/></linearGradient><linearGradient id="g" x1="4.525" y1="17.843" x2="9.265" y2="19.197" gradientUnits="userSpaceOnUse"><stop stop-color="#fff"/><stop offset="1" stop-color="#fff"/></linearGradient><linearGradient id="h" x1="8.47" y1="17.754" x2="5.07" y2="14.322" gradientUnits="userSpaceOnUse"><stop stop-color="#8697FF"/><stop offset="1" stop-color="#8697FF" stop-opacity="0"/></linearGradient><linearGradient id="i" x1="6.703" y1="19.66" x2="3.426" y2="17.763" gradientUnits="userSpaceOnUse"><stop stop-color="#8697FF"/><stop offset="1" stop-color="#8697FF" stop-opacity="0"/></linearGradient><linearGradient id="j" x1="4.808" y1="17.808" x2="7.012" y2="20.628" gradientUnits="userSpaceOnUse"><stop stop-color="#fff"/><stop offset=".984" stop-color="#D1D8FF"/></linearGradient><clipPath id="a"><path fill="#fff" d="M2 2h8v8H2z"/></clipPath><clipPath id="b"><path fill="#fff" d="M10 2.25H2V9.5h8z"/></clipPath><clipPath id="c"><path fill="#fff" d="M14 2h8v8h-8z"/></clipPath><clipPath id="e"><path fill="#fff" d="M13 13h10v10H13z"/></clipPath><clipPath id="f"><path fill="#fff" d="M1 13h10v10H1z"/></clipPath></defs></svg>